<svg width="350" height="100" viewBox="0 0 350 100" fill="none" xmlns="http://www.w3.org/2000/svg">
<rect x="28" y="13" width="294" height="74" rx="8" fill="black"/>
<path fill-rule="evenodd" clip-rule="evenodd" d="M42 30.3645C42 28.5063 43.5063 27 45.3645 27H64.5C76.9264 27 87 37.0736 87 49.5C87 61.9264 76.9264 72 64.5 72H45.3645C43.5063 72 42 70.4937 42 68.6355V30.3645ZM46.9315 34.0833C46.9315 33.0651 47.7569 32.2397 48.7751 32.2397H64.1918C68.2772 32.2397 71.589 35.5516 71.589 39.637C71.589 43.7224 68.2772 47.0342 64.1918 47.0342H48.7751C47.7569 47.0342 46.9315 46.2089 46.9315 45.1907V34.0833ZM48.7751 51.9658C47.7569 51.9658 46.9315 52.7911 46.9315 53.8093V64.9167C46.9315 65.9349 47.7569 66.7603 48.7751 66.7603H64.1918C68.2772 66.7603 71.5891 63.4484 71.5891 59.363C71.5891 55.2776 68.2772 51.9658 64.1918 51.9658H48.7751Z" fill="white"/>
<path d="M130.317 64.504C127.685 64.504 125.585 63.566 124.017 61.69C122.449 59.814 121.665 57.294 121.665 54.13C121.665 50.966 122.449 48.446 124.017 46.57C125.585 44.694 127.685 43.756 130.317 43.756C132.697 43.756 134.979 44.526 137.163 46.066V34.18H140.187V64H137.919L137.583 61.9C135.287 63.636 132.865 64.504 130.317 64.504ZM130.821 61.648C131.885 61.648 132.977 61.452 134.097 61.06C135.217 60.668 136.239 60.122 137.163 59.422V48.838C136.239 48.138 135.217 47.592 134.097 47.2C132.977 46.808 131.885 46.612 130.821 46.612C128.945 46.612 127.461 47.284 126.369 48.628C125.305 49.972 124.773 51.806 124.773 54.13C124.773 56.454 125.305 58.288 126.369 59.632C127.461 60.976 128.945 61.648 130.821 61.648ZM155.73 64.504C152.286 64.504 149.206 63.692 146.49 62.068L147.708 59.506C150.172 60.934 152.888 61.648 155.856 61.648C159.636 61.648 161.526 60.556 161.526 58.372C161.526 57.56 161.274 56.972 160.77 56.608C160.266 56.216 159.384 55.936 158.124 55.768L153.336 55.096C151.292 54.788 149.794 54.242 148.842 53.458C147.918 52.646 147.456 51.456 147.456 49.888C147.456 47.928 148.17 46.416 149.598 45.352C151.054 44.288 153.084 43.756 155.688 43.756C158.628 43.756 161.4 44.428 164.004 45.772L162.912 48.376C160.7 47.2 158.264 46.612 155.604 46.612C152.216 46.612 150.522 47.634 150.522 49.678C150.522 50.462 150.774 51.036 151.278 51.4C151.782 51.764 152.664 52.03 153.924 52.198L158.712 52.87C160.784 53.15 162.282 53.696 163.206 54.508C164.13 55.32 164.592 56.538 164.592 58.162C164.592 60.206 163.822 61.774 162.282 62.866C160.77 63.958 158.586 64.504 155.73 64.504ZM181.227 64.504C178.679 64.504 176.257 63.636 173.961 61.9L173.625 64H171.357V34.18H174.381V46.066C176.565 44.526 178.847 43.756 181.227 43.756C183.887 43.756 185.987 44.694 187.527 46.57C189.095 48.446 189.879 50.966 189.879 54.13C189.879 57.294 189.095 59.814 187.527 61.69C185.987 63.566 183.887 64.504 181.227 64.504ZM180.723 61.648C182.627 61.648 184.111 60.976 185.175 59.632C186.239 58.288 186.771 56.454 186.771 54.13C186.771 51.806 186.239 49.972 185.175 48.628C184.111 47.284 182.627 46.612 180.723 46.612C179.687 46.612 178.595 46.808 177.447 47.2C176.327 47.592 175.305 48.138 174.381 48.838V59.422C175.305 60.122 176.327 60.668 177.447 61.06C178.595 61.452 179.687 61.648 180.723 61.648ZM202.86 64.504C198.156 64.504 195.804 62.026 195.804 57.07V44.26H198.828V56.608C198.828 58.372 199.192 59.66 199.92 60.472C200.648 61.256 201.796 61.648 203.364 61.648C205.716 61.648 207.9 60.906 209.916 59.422V44.26H212.94V64H210.672L210.336 61.9C208.04 63.636 205.548 64.504 202.86 64.504ZM227.35 64V47.032H218.95V44.26H230.374V61.228H238.774V64H227.35ZM228.442 39.472C227.658 39.472 226.972 39.192 226.384 38.632C225.824 38.044 225.544 37.358 225.544 36.574C225.544 35.762 225.824 35.076 226.384 34.516C226.972 33.956 227.658 33.676 228.442 33.676C229.254 33.676 229.94 33.956 230.5 34.516C231.06 35.076 231.34 35.762 231.34 36.574C231.34 37.358 231.06 38.044 230.5 38.632C229.94 39.192 229.254 39.472 228.442 39.472ZM258.097 64.504C253.197 64.504 250.747 62.026 250.747 57.07V36.952H242.347V34.18H253.771V56.608C253.771 58.372 254.135 59.66 254.863 60.472C255.591 61.256 256.739 61.648 258.307 61.648C260.071 61.648 261.723 61.228 263.263 60.388L264.103 63.076C262.283 64.028 260.281 64.504 258.097 64.504ZM276.496 64.504C273.864 64.504 271.764 63.566 270.196 61.69C268.628 59.814 267.844 57.294 267.844 54.13C267.844 50.966 268.628 48.446 270.196 46.57C271.764 44.694 273.864 43.756 276.496 43.756C278.876 43.756 281.158 44.526 283.342 46.066V34.18H286.366V64H284.098L283.762 61.9C281.466 63.636 279.044 64.504 276.496 64.504ZM277 61.648C278.064 61.648 279.156 61.452 280.276 61.06C281.396 60.668 282.418 60.122 283.342 59.422V48.838C282.418 48.138 281.396 47.592 280.276 47.2C279.156 46.808 278.064 46.612 277 46.612C275.124 46.612 273.64 47.284 272.548 48.628C271.484 49.972 270.952 51.806 270.952 54.13C270.952 56.454 271.484 58.288 272.548 59.632C273.64 60.976 275.124 61.648 277 61.648Z" fill="#A9A9A9"/>
</svg>
